<svg xmlns="http://www.w3.org/2000/svg" version="1.1" xmlns:xlink="http://www.w3.org/1999/xlink" xmlns:svgjs="http://svgjs.dev/svgjs" width="1440" height="560" preserveAspectRatio="none" viewBox="0 0 1440 560"><g mask="url(&quot;#SvgjsMask1181&quot;)" fill="none"><rect width="1440" height="560" x="0" y="0" fill="url(&quot;#SvgjsLinearGradient1182&quot;)"></rect><path d="M -25.477448822657834,400 C 46.52,334 190.52,52.6 334.52255117734217,70 C 478.52,87.4 550.52,479.6 694.5225511773422,487 C 838.52,494.4 910.52,130.4 1054.5225511773422,107 C 1198.52,83.6 1270.52,380 1414.5225511773422,370 C 1558.52,360 1769.43,45.8 1774.5225511773422,57 C 1779.62,68.2 1506.9,352.2 1440,426" stroke="rgba(212, 216, 221, 0.58)" stroke-width="2"></path><path d="M -534.9539028115234,294 C -462.95,267 -318.95,119.8 -174.95390281152342,159 C -30.95,198.2 41.05,500.8 185.04609718847658,490 C 329.05,479.2 401.05,137.8 545.0460971884766,105 C 689.05,72.2 761.05,318.6 905.0460971884766,326 C 1049.05,333.4 1158.06,112.8 1265.0460971884766,142 C 1372.04,171.2 1405.01,406 1440,472" stroke="rgba(212, 216, 221, 0.58)" stroke-width="2"></path><path d="M -512.6380871051024,352 C -440.64,315.6 -296.64,179.8 -152.6380871051024,170 C -8.64,160.2 63.36,322 207.3619128948976,303 C 351.36,284 423.36,50.8 567.3619128948976,75 C 711.36,99.2 783.36,403.2 927.3619128948976,424 C 1071.36,444.8 1184.83,180.8 1287.3619128948976,179 C 1389.89,177.2 1409.47,367.8 1440,415" stroke="rgba(212, 216, 221, 0.58)" stroke-width="2"></path><path d="M -279.9360379347254,152 C -207.94,178.8 -63.94,270.6 80.06396206527461,286 C 224.06,301.4 296.06,203.8 440.0639620652746,229 C 584.06,254.2 656.06,412.4 800.0639620652746,412 C 944.06,411.6 1016.06,243.6 1160.0639620652746,227 C 1304.06,210.4 1464.08,349 1520.0639620652746,329 C 1576.05,309 1456.01,167.4 1440,127" stroke="rgba(212, 216, 221, 0.58)" stroke-width="2"></path></g><defs><mask id="SvgjsMask1181"><rect width="1440" height="560" fill="#ffffff"></rect></mask><linearGradient x1="15.28%" y1="-39.29%" x2="84.72%" y2="139.29%" gradientUnits="userSpaceOnUse" id="SvgjsLinearGradient1182"><stop stop-color="#0e2a47" offset="0"></stop><stop stop-color="rgba(19, 0, 158, 0.73)" offset="1"></stop></linearGradient></defs></svg>